<svg width="25" height="24" viewBox="0 0 25 24" fill="none" xmlns="http://www.w3.org/2000/svg">
<path d="M14.5439 20.5715H21.2292V22.2858H14.5439V20.5715ZM14.5439 17.1429H24.5719V18.8572H14.5439V17.1429ZM14.5439 13.7144H24.5719V15.4286H14.5439V13.7144Z" fill="#F8F8FA"/>
<path d="M16.6746 7.90029L12.8732 0L9.07179 7.90029L0.572266 9.16714L6.72274 15.3171L5.27036 24L11.2019 20.802V18.8649L7.49072 20.8663L8.36983 15.6069L8.51858 14.718L7.88933 14.0897L4.16394 10.3637L9.31246 9.59657L10.1815 9.46714L10.571 8.65886L12.8732 3.87343L15.1755 8.65886L15.5649 9.46714L16.434 9.59657L22.663 10.5266L22.9012 8.82857L16.6746 7.90029Z" fill="#F8F8FA"/>
</svg>
