<svg width="24" height="23" viewBox="0 0 24 23" fill="none" xmlns="http://www.w3.org/2000/svg">
<path d="M11.9287 0C7.89848 0 4.61053 3.145 4.61053 7C4.61053 9.379 5.87553 11.484 7.7793 12.75C3.48771 14.352 0.428711 18.352 0.428711 23H2.51962C2.51962 18.602 5.85567 14.926 10.2298 14.156L10.8833 16H12.9742L13.6276 14.156C18.0018 14.926 21.3378 18.602 21.3378 23H23.4287C23.4287 18.352 20.3697 14.352 16.0781 12.75C17.9808 11.484 19.2469 9.379 19.2469 7C19.2469 3.145 15.9589 0 11.9287 0ZM11.9287 2C14.8278 2 17.156 4.227 17.156 7C17.156 9.773 14.8278 12 11.9287 12C9.02966 12 6.70144 9.773 6.70144 7C6.70144 4.227 9.02966 2 11.9287 2ZM10.8833 17L9.8378 23H14.0196L12.9742 17H10.8833Z" fill="#F8F8FA"/>
</svg>
