<svg width="29" height="23" viewBox="0 0 29 23" fill="none" xmlns="http://www.w3.org/2000/svg">
<path d="M5.51451 5.42023C5.51451 4.99316 5.59876 4.57026 5.76244 4.17569C5.92613 3.78112 6.16605 3.42261 6.4685 3.12062C6.77096 2.81863 7.13002 2.57908 7.5252 2.41565C7.92037 2.25221 8.34392 2.16809 8.77165 2.16809C9.19939 2.16809 9.62293 2.25221 10.0181 2.41565C10.4133 2.57908 10.7723 2.81863 11.0748 3.12062C11.3773 3.42261 11.6172 3.78112 11.7809 4.17569C11.9445 4.57026 12.0288 4.99316 12.0288 5.42023C12.0288 6.28275 11.6856 7.10995 11.0748 7.71984C10.464 8.32974 9.6355 8.67237 8.77165 8.67237C7.9078 8.67237 7.07934 8.32974 6.4685 7.71984C5.85767 7.10995 5.51451 6.28275 5.51451 5.42023ZM8.77165 0C7.3319 0 5.95113 0.571059 4.93307 1.58755C3.91502 2.60404 3.34308 3.9827 3.34308 5.42023C3.34308 6.85777 3.91502 8.23642 4.93307 9.25292C5.95113 10.2694 7.3319 10.8405 8.77165 10.8405C10.2114 10.8405 11.5922 10.2694 12.6102 9.25292C13.6283 8.23642 14.2002 6.85777 14.2002 5.42023C14.2002 3.9827 13.6283 2.60404 12.6102 1.58755C11.5922 0.571059 10.2114 0 8.77165 0ZM19.6288 6.50428C19.6288 5.92927 19.8576 5.3778 20.2648 4.97121C20.672 4.56461 21.2243 4.33619 21.8002 4.33619C22.3761 4.33619 22.9284 4.56461 23.3357 4.97121C23.7429 5.3778 23.9717 5.92927 23.9717 6.50428C23.9717 7.07929 23.7429 7.63076 23.3357 8.03735C22.9284 8.44395 22.3761 8.67237 21.8002 8.67237C21.2243 8.67237 20.672 8.44395 20.2648 8.03735C19.8576 7.63076 19.6288 7.07929 19.6288 6.50428ZM21.8002 2.16809C20.6484 2.16809 19.5438 2.62494 18.7294 3.43813C17.9149 4.25132 17.4574 5.35425 17.4574 6.50428C17.4574 7.65431 17.9149 8.75723 18.7294 9.57043C19.5438 10.3836 20.6484 10.8405 21.8002 10.8405C22.952 10.8405 24.0566 10.3836 24.8711 9.57043C25.6855 8.75723 26.1431 7.65431 26.1431 6.50428C26.1431 5.35425 25.6855 4.25132 24.8711 3.43813C24.0566 2.62494 22.952 2.16809 21.8002 2.16809ZM0.0859375 16.2607C0.0859375 15.3982 0.4291 14.571 1.03993 13.9611C1.65077 13.3512 2.47923 13.0086 3.34308 13.0086H14.2002C15.0641 13.0086 15.8925 13.3512 16.5034 13.9611C17.1142 14.571 17.4574 15.3982 17.4574 16.2607V16.5035C17.4551 16.6028 17.4478 16.702 17.4356 16.8006C17.3119 17.8516 16.9201 18.8534 16.2978 19.7101C15.1101 21.347 12.8518 22.765 8.77165 22.765C4.69371 22.765 2.43542 21.347 1.24331 19.7101C0.621762 18.8532 0.23075 17.8514 0.107652 16.8006C0.0968416 16.7018 0.0895988 16.6028 0.0859375 16.5035V16.2607ZM2.25737 16.4558V16.471L2.26605 16.5772C2.35014 17.2484 2.60259 17.8875 2.99999 18.4353C3.70788 19.4066 5.24959 20.5969 8.77165 20.5969C12.2937 20.5969 13.8354 19.4066 14.5433 18.4353C14.9407 17.8875 15.1932 17.2484 15.2773 16.5772C15.2811 16.5412 15.284 16.505 15.2859 16.4688V16.2607C15.2859 15.9732 15.1715 15.6975 14.9679 15.4942C14.7643 15.2909 14.4882 15.1767 14.2002 15.1767H3.34308C3.05513 15.1767 2.77898 15.2909 2.57536 15.4942C2.37175 15.6975 2.25737 15.9732 2.25737 16.2607V16.4558ZM21.8002 20.5969C20.5234 20.5969 19.4768 20.4018 18.6299 20.0809C18.9781 19.4442 19.2416 18.7649 19.4138 18.0602C19.9958 18.2792 20.7688 18.4288 21.8002 18.4288C24.2301 18.4288 25.2267 17.6006 25.6654 16.9848C25.9218 16.6257 26.0844 16.2084 26.1387 15.7707L26.1431 15.71C26.1408 15.5678 26.0826 15.4321 25.981 15.3323C25.8795 15.2325 25.7427 15.1766 25.6002 15.1767H19.5202C19.3599 14.3904 19.0261 13.6498 18.5431 13.0086H25.6002C27.0985 13.0086 28.3145 14.2227 28.3145 15.7187V15.7555C28.3119 15.8345 28.3061 15.9133 28.2971 15.9919C28.2051 16.8045 27.9077 17.5804 27.4329 18.2467C26.5166 19.528 24.799 20.5969 21.8002 20.5969Z" fill="#F8F8FA"/>
</svg>
