<svg width="26" height="23" viewBox="0 0 26 23" fill="none" xmlns="http://www.w3.org/2000/svg">
<path d="M8.66667 1.64286C9.52372 1.64286 10.3615 1.88374 11.0741 2.33504C11.7868 2.78633 12.3422 3.42778 12.6701 4.17826C12.9981 4.92875 13.0839 5.75456 12.9167 6.55126C12.7495 7.34797 12.3368 8.07979 11.7308 8.65419C11.1248 9.22858 10.3526 9.61975 9.51206 9.77823C8.67147 9.9367 7.80019 9.85537 7.00837 9.54451C6.21656 9.23365 5.53978 8.70722 5.06363 8.03181C4.58748 7.35639 4.33333 6.56232 4.33333 5.75C4.33333 4.66072 4.78988 3.61605 5.60254 2.84581C6.41519 2.07557 7.5174 1.64286 8.66667 1.64286ZM8.66667 0C7.46679 0 6.29387 0.337232 5.29621 0.96905C4.29855 1.60087 3.52097 2.4989 3.0618 3.54957C2.60263 4.60025 2.48249 5.75638 2.71657 6.87177C2.95065 7.98716 3.52845 9.01171 4.37689 9.81586C5.22532 10.62 6.3063 11.1677 7.48312 11.3895C8.65994 11.6114 9.87974 11.4975 10.9883 11.0623C12.0968 10.6271 13.0443 9.89011 13.7109 8.94453C14.3775 7.99895 14.7333 6.88724 14.7333 5.75C14.7333 4.22501 14.0942 2.76247 12.9564 1.68414C11.8187 0.605802 10.2756 0 8.66667 0ZM17.3333 23H15.6V18.8929C15.6 17.8036 15.1435 16.7589 14.3308 15.9887C13.5181 15.2184 12.4159 14.7857 11.2667 14.7857H6.06667C4.9174 14.7857 3.81519 15.2184 3.00254 15.9887C2.18988 16.7589 1.73333 17.8036 1.73333 18.8929V23H0V18.8929C0 17.3679 0.639165 15.9053 1.77689 14.827C2.91461 13.7487 4.45769 13.1429 6.06667 13.1429H11.2667C12.8756 13.1429 14.4187 13.7487 15.5564 14.827C16.6942 15.9053 17.3333 17.3679 17.3333 18.8929V23ZM17.3333 1.64286H26V3.28571H17.3333V1.64286ZM17.3333 5.75H26V7.39286H17.3333V5.75ZM17.3333 9.85714H23.4V11.5H17.3333V9.85714Z" fill="#F8F8FA"/>
</svg>
